<svg width="28" height="28" viewBox="0 0 28 28" fill="none" xmlns="http://www.w3.org/2000/svg">
<path fill-rule="evenodd" clip-rule="evenodd" d="M14 8.41321L6.74609 1.15919C5.2043 -0.382614 2.69714 -0.388517 1.15442 1.15423C-0.385172 2.69384 -0.38609 5.20049 1.15938 6.74598L8.4133 14L1.15938 21.254C-0.38609 22.7995 -0.385172 25.3062 1.15442 26.8458C2.69714 28.3885 5.2043 28.3826 6.74609 26.8408L14 19.5868L21.2539 26.8408C22.7957 28.3826 25.3029 28.3885 26.8456 26.8458C28.3852 25.3062 28.3861 22.7995 26.8406 21.254L19.5867 14L26.8406 6.74598C28.3861 5.20049 28.3852 2.69384 26.8456 1.15423C25.3029 -0.388517 22.7957 -0.382614 21.2539 1.15919L14 8.41321Z" fill="url(#paint0_linear)"/>
<defs>
<linearGradient id="paint0_linear" x1="28" y1="0.000402206" x2="-1.66313e-06" y2="27.9996" gradientUnits="userSpaceOnUse">
<stop stop-color="#EE1FE6" stop-opacity="0.73"/>
<stop offset="1" stop-color="#B799DD"/>
</linearGradient>
</defs>
</svg>
