<svg width="30" height="30" viewBox="0 0 30 30" fill="none" xmlns="http://www.w3.org/2000/svg">
<path d="M23.543 23.1161C23.543 24.7243 19.7695 26.0201 15.1172 26.0201C10.4648 26.0201 6.69141 24.7127 6.69141 23.1161C6.69141 21.5079 10.4648 20.2121 15.1172 20.2121C19.7695 20.2121 23.543 21.5079 23.543 23.1161Z" fill="#9EDCF2"/>
<path d="M23.543 23.1161C23.543 24.7243 19.7695 26.0201 15.1172 26.0201C10.4648 26.0201 6.69141 24.7127 6.69141 23.1161C6.69141 21.5079 10.4648 20.2121 15.1172 20.2121C19.7695 20.2121 23.543 21.5079 23.543 23.1161Z" fill="#7DBCE7"/>
<path d="M5.49603 14.5661L5.24994 15.3992C5.24994 15.3992 5.19135 15.7 5.4726 15.7578C5.77728 15.7462 5.75385 15.4686 5.73041 15.3876L5.49603 14.5661Z" fill="#9EDCF2"/>
<path d="M29.9766 11.0599L30 10.9558C27.5273 10.4699 24.9961 10.4583 23.4609 10.5277C23.707 9.63687 23.7891 8.59561 23.7891 7.45022C23.7891 5.79576 23.1563 4.47683 22.1484 3.48184C22.3242 2.91493 22.5586 1.65384 21.9141 0.0456625C21.9141 0.0456625 20.7656 -0.312996 18.1523 1.41088C17.1328 1.15635 16.043 1.02908 14.9531 1.02908C13.7578 1.02908 12.5508 1.17948 11.4141 1.48029C8.71875 -0.336135 7.53516 0.0340929 7.53516 0.0340929C6.76172 1.94308 7.24219 3.36614 7.38281 3.71323C6.46875 4.68508 5.91797 5.92303 5.91797 7.43865C5.91797 8.58404 6.04688 9.61374 6.375 10.5046C4.82813 10.4467 2.39062 10.4699 0 10.9442L0.0234375 11.0484C2.41406 10.574 4.875 10.5624 6.41016 10.6203C6.48047 10.8054 6.5625 10.9905 6.64453 11.1641C5.12109 11.2103 2.53125 11.407 0.046875 12.1012L0.0820312 12.2053C2.58984 11.5112 5.20312 11.326 6.71484 11.2798C7.62891 12.9458 9.41016 14.0333 12.5977 14.3688C12.1406 14.6697 11.6836 15.1787 11.4961 16.0464C10.875 16.3357 8.92969 17.053 7.75781 15.063C7.75781 15.063 7.10156 13.8829 5.84766 13.7904C5.84766 13.7904 4.62891 13.7672 5.76563 14.5424C5.76563 14.5424 6.57422 14.9242 7.13672 16.3473C7.13672 16.3473 7.875 18.7769 11.4023 17.9901V20.4776C11.4023 20.4776 11.332 21.3685 10.5 21.6577C10.5 21.6577 10.0078 21.9932 10.5352 22.1783C10.5352 22.1783 12.8203 22.3635 12.8203 20.5123V17.7819C12.8203 17.7819 12.7266 16.6943 13.2656 16.3241V20.8131C13.2656 20.8131 13.2305 21.8891 12.668 22.294C12.668 22.294 12.293 22.9535 13.1133 22.78C13.1133 22.78 14.6836 22.5601 14.7539 20.7437L14.7891 16.1968H15.1641L15.1992 20.7437C15.2695 22.5486 16.8398 22.78 16.8398 22.78C17.6602 22.9651 17.2852 22.294 17.2852 22.294C16.7227 21.8891 16.6875 20.8131 16.6875 20.8131V16.3588C17.2266 16.7753 17.1328 17.7819 17.1328 17.7819V20.5123C17.1328 22.3635 19.418 22.1783 19.418 22.1783C19.9453 21.9932 19.4531 21.6577 19.4531 21.6577C18.6328 21.3569 18.5508 20.4776 18.5508 20.4776V16.891C18.5508 15.4911 17.9531 14.7506 17.3672 14.3688C20.7656 14.0333 22.3945 12.9574 23.1445 11.2682C24.6328 11.3029 27.3164 11.488 29.8711 12.2053L29.9062 12.1012C27.3633 11.3955 24.7031 11.2103 23.1914 11.1641C23.2617 10.9905 23.3203 10.817 23.3789 10.6319C24.9492 10.574 27.4922 10.574 29.9766 11.0599V11.0599Z" fill="#010101"/>
<path d="M20.4609 7.36984C21.1875 8.02931 21.6211 8.81604 21.6211 9.66062C21.6211 13.6406 18.6211 13.7447 14.918 13.7447C11.2148 13.7447 8.21484 13.1894 8.21484 9.66062C8.21484 8.81604 8.63672 8.02931 9.36328 7.38141C10.5703 6.29387 12.6094 6.87235 14.918 6.87235C17.2266 6.87235 19.2539 6.2823 20.4609 7.36984V7.36984Z" fill="#F5CCB3"/>
<path d="M12.6914 9.86888C12.6914 10.968 12.0703 11.8473 11.2969 11.8473C10.5234 11.8473 9.90234 10.9564 9.90234 9.86888C9.90234 8.76977 10.5234 7.89048 11.2969 7.89048C12.0703 7.87891 12.6914 8.76977 12.6914 9.86888V9.86888Z" fill="white"/>
<path d="M12.2461 9.89202C12.2461 10.6209 11.8242 11.211 11.3203 11.211C10.8047 11.211 10.3945 10.6209 10.3945 9.89202C10.3945 9.16313 10.8164 8.57308 11.3203 8.57308C11.8242 8.57308 12.2461 9.16313 12.2461 9.89202Z" fill="#AF5C51"/>
<path d="M20.1797 9.86888C20.1797 10.968 19.5586 11.8473 18.7852 11.8473C18.0117 11.8473 17.3906 10.9564 17.3906 9.86888C17.3906 8.76977 18.0117 7.89048 18.7852 7.89048C19.5469 7.87891 20.1797 8.76977 20.1797 9.86888V9.86888Z" fill="white"/>
<path d="M19.7227 9.89202C19.7227 10.6209 19.3008 11.211 18.7969 11.211C18.2812 11.211 17.8711 10.6209 17.8711 9.89202C17.8711 9.16313 18.293 8.57308 18.7969 8.57308C19.3125 8.57308 19.7227 9.16313 19.7227 9.89202Z" fill="#AF5C51"/>
<path d="M15.293 11.6275C15.293 11.8126 15.1406 11.9746 14.9414 11.9746C14.7539 11.9746 14.5898 11.8241 14.5898 11.6275C14.5898 11.4308 14.7422 11.2804 14.9414 11.2804C15.1289 11.2804 15.293 11.4308 15.293 11.6275Z" fill="#AF5C51"/>
<path d="M14.1328 12.4952C14.1094 12.4373 14.1445 12.3795 14.2031 12.3563C14.2617 12.3332 14.3203 12.3679 14.3438 12.4258C14.4375 12.6803 14.6719 12.8423 14.9414 12.8423C15.211 12.8423 15.4453 12.6687 15.5391 12.4258C15.5625 12.3679 15.6211 12.3332 15.6797 12.3563C15.7383 12.3795 15.7734 12.4373 15.75 12.4952C15.6328 12.8307 15.3047 13.0621 14.9414 13.0621C14.5781 13.0621 14.25 12.8307 14.1328 12.4952V12.4952Z" fill="#AF5C51"/>
<path d="M6.38672 14.0686C6.38672 14.1612 6.28125 14.2306 6.14063 14.2306C6.01172 14.2306 5.89453 14.1612 5.89453 14.0686C5.89453 13.9761 6 13.9067 6.14063 13.9067C6.28125 13.9067 6.38672 13.9761 6.38672 14.0686Z" fill="#C4E5D9"/>
<path d="M7.06641 14.4389C7.06641 14.5314 6.96094 14.6009 6.82031 14.6009C6.69141 14.6009 6.57422 14.5314 6.57422 14.4389C6.57422 14.3463 6.67969 14.2769 6.82031 14.2769C6.96094 14.2769 7.06641 14.3463 7.06641 14.4389Z" fill="#C4E5D9"/>
<path d="M7.47656 14.9248C7.47656 15.0174 7.37109 15.0868 7.23047 15.0868C7.10156 15.0868 6.98438 15.0174 6.98438 14.9248C6.98438 14.8322 7.08984 14.7628 7.23047 14.7628C7.37109 14.7513 7.47656 14.8322 7.47656 14.9248Z" fill="#C4E5D9"/>
<path d="M7.85157 15.4801C7.85157 15.5727 7.7461 15.6421 7.60547 15.6421C7.47656 15.6421 7.35938 15.5727 7.35938 15.4801C7.35938 15.3876 7.46484 15.3182 7.60547 15.3182C7.7461 15.3066 7.85157 15.3876 7.85157 15.4801Z" fill="#C4E5D9"/>
<path d="M8.26172 15.9892C8.26172 16.0818 8.15625 16.1512 8.01562 16.1512C7.88672 16.1512 7.76953 16.0818 7.76953 15.9892C7.76953 15.8966 7.875 15.8272 8.01562 15.8272C8.15625 15.8272 8.26172 15.8966 8.26172 15.9892Z" fill="#C4E5D9"/>
<path d="M8.82422 16.4404C8.82422 16.533 8.71875 16.6024 8.57812 16.6024C8.44922 16.6024 8.33203 16.533 8.33203 16.4404C8.33203 16.3479 8.4375 16.2784 8.57812 16.2784C8.71875 16.2669 8.82422 16.3479 8.82422 16.4404Z" fill="#C4E5D9"/>
<path d="M9.60937 16.7297C9.60937 16.8222 9.50391 16.8916 9.36328 16.8916C9.23437 16.8916 9.11719 16.8222 9.11719 16.7297C9.11719 16.6371 9.22266 16.5677 9.36328 16.5677C9.50391 16.5677 9.60937 16.6371 9.60937 16.7297Z" fill="#C4E5D9"/>
<path d="M10.3945 16.7297C10.3945 16.8222 10.2891 16.8916 10.1484 16.8916C10.0195 16.8916 9.90234 16.8222 9.90234 16.7297C9.90234 16.6371 10.0078 16.5677 10.1484 16.5677C10.2891 16.5677 10.3945 16.6371 10.3945 16.7297Z" fill="#C4E5D9"/>
<path d="M11.1914 16.6024C11.1914 16.6949 11.0859 16.7644 10.9453 16.7644C10.8164 16.7644 10.6992 16.6949 10.6992 16.6024C10.6992 16.5098 10.8047 16.4404 10.9453 16.4404C11.0742 16.4404 11.1914 16.5098 11.1914 16.6024Z" fill="#C4E5D9"/>
</svg>
