<svg width="33" height="33" viewBox="0 0 33 33" fill="none" xmlns="http://www.w3.org/2000/svg">
<path d="M5.9453 28.8594L4.85155 27.7109L15.2969 17.3203L16.4453 18.4141L5.9453 28.8594Z" fill="#FFCE31"/>
<path d="M1.29688 32.3594C1.29688 32.3594 0.914072 27.8203 4.79688 23.9922L5.94532 27.7656L1.29688 32.3594Z" fill="#42ADE2"/>
<path d="M1.29686 32.3594C1.29686 32.3594 5.83592 32.7422 9.71874 28.8594L5.9453 27.7109L1.29686 32.3594Z" fill="#467591"/>
<path d="M28.9141 12.2891C25.7969 4.08594 15.6797 7.75 14.6953 11.8516C13.3828 7.47656 3.53905 4.19531 0.476553 12.2891C-2.85938 21.2578 13.4922 29.3516 14.6953 30.6641C15.8984 29.625 32.3047 21.1484 28.9141 12.2891" fill="#E92A2A" fill-opacity="0.91"/>
<path d="M19.289 15.4609L17.9765 14.2031L27.164 5.07031L28.4219 6.38281L19.289 15.4609Z" fill="#FFCE31"/>
<path d="M21.3672 10.8672C21.3672 10.8672 21.1484 5.45313 25.9609 0.640625L27.1641 5.07031L21.3672 10.8672Z" fill="#467591"/>
<path d="M22.625 12.125C22.625 12.125 28.039 12.3437 32.9062 7.53125L28.4218 6.32812L22.625 12.125Z" fill="#467591"/>
</svg>
