<svg width="125" height="34" viewBox="0 0 125 34" fill="none" xmlns="http://www.w3.org/2000/svg">
<path d="M38.5098 1.03525C38.7147 1.13393 38.8445 1.33833 39.0084 1.50045C39.2748 1.74009 39.473 2.05727 39.7325 2.30397C40.0536 2.62115 40.2585 3.02291 40.5249 3.38238C40.9893 4.10838 41.3992 4.88371 41.6109 5.72952C41.8295 6.30749 41.8636 6.93481 41.85 7.55507C41.8636 8.11895 41.7134 8.67578 41.4674 9.18327C41.044 9.95155 40.279 10.4661 39.4797 10.741C38.4825 10.9877 37.3828 11.03 36.4197 10.593C36.0713 10.3956 35.6752 10.2617 35.3951 9.95155C34.7462 9.40177 34.3705 8.50661 34.4935 7.63965C34.6847 6.09604 35.5795 4.77093 36.5358 3.62908C36.6246 3.79824 36.5494 3.9956 36.6109 4.17181C36.6929 4.54538 36.8227 4.94009 37.0959 5.20794C37.4306 4.89075 37.7858 4.57357 38.0727 4.20705C38.3323 3.81234 38.544 3.37534 38.6327 2.91014C38.6533 2.31807 38.708 1.6978 38.4893 1.13393L38.5098 1.03525ZM25.9964 8.07666C27.5947 8.09075 29.1999 8.06256 30.7983 8.09075C30.7983 9.73305 30.8119 11.3753 30.7914 13.0176C31.9253 13.0388 33.0591 13.0247 34.1998 13.0247C34.2134 13.1515 34.2203 13.2784 34.2203 13.4053C34.2066 14.7586 34.2271 16.1049 34.2066 17.4582C33.0659 17.4723 31.9321 17.4582 30.7914 17.4652C30.8119 19.8969 30.7845 22.3216 30.805 24.7533C30.846 24.9648 30.8733 25.1762 30.8665 25.3947C30.8459 25.5921 30.9621 25.7543 31.0031 25.9375C31.0919 26.3604 31.3173 26.741 31.5768 27.0723C31.9594 27.467 32.4511 27.7419 32.9771 27.8617C33.4552 27.9393 33.9333 27.9815 34.4184 27.9463C34.4456 28.0308 34.4593 28.1154 34.4593 28.2071C34.4525 29.4758 34.4525 30.7445 34.4593 32.0062C34.4593 32.1824 34.4252 32.3586 34.3979 32.5277C33.708 32.5277 33.0182 32.577 32.3282 32.5277C31.9184 32.4361 31.4813 32.4783 31.0851 32.2951C29.9854 32.0272 28.9335 31.4634 28.148 30.6105C26.9936 29.4617 26.3721 27.8405 26.1193 26.2335C26.051 26.0573 26.092 25.8529 26.0646 25.6626C25.9691 25.2749 26.01 24.866 25.9963 24.4714C25.9896 19.0088 25.9896 13.5392 25.9964 8.07666ZM49.3293 12.6441C49.6161 12.5665 49.9234 12.6229 50.2103 12.5595C50.8114 12.4819 51.4056 12.5806 51.9999 12.6018C52.4166 12.5947 52.8196 12.7216 53.2294 12.8062C54.7526 13.1868 56.1938 14.0256 57.2389 15.252C57.4233 15.5692 57.7033 15.8018 57.8809 16.126C58.3248 16.852 58.6186 17.6626 58.8713 18.4802C59.0284 19.0793 59.1103 19.6996 59.1855 20.3128C59.2197 21.6731 59.1992 23.0405 59.206 24.4009C59.1992 27.1145 59.2129 29.8282 59.1992 32.5419C57.6009 32.5207 56.0094 32.5348 54.4179 32.5278C54.4042 32.5207 54.3701 32.4925 54.3564 32.4784C54.3496 28.6794 54.3564 24.8802 54.3564 21.0881C54.3632 20.6229 54.2813 20.1718 54.1856 19.7278C54.0149 19.2767 53.7963 18.8467 53.4958 18.4802C53.3181 18.2617 53.0723 18.1207 52.8741 17.9304C52.5668 17.7189 52.2047 17.6203 51.8565 17.5216C51.672 17.5075 51.4876 17.5216 51.3169 17.4582C50.586 17.4088 49.8415 17.4723 49.1584 17.7612C48.6597 18.0079 48.1953 18.3463 47.8675 18.8185C47.3279 19.4811 47.1503 20.3833 47.1639 21.2291C47.1639 24.993 47.1708 28.7639 47.1639 32.5278C45.5519 32.5419 43.94 32.5207 42.328 32.5419C42.3006 28.9119 42.328 25.2749 42.3143 21.6449C42.3211 21.1797 42.3075 20.7145 42.3416 20.2493C42.4304 20.0167 42.3689 19.763 42.4372 19.5374C42.5601 18.6775 42.8743 17.8598 43.2227 17.0775C43.5642 16.3938 43.974 15.7383 44.5068 15.1955C44.9235 14.7585 45.3538 14.3004 45.8798 13.9973C46.8976 13.2643 48.0998 12.8203 49.3293 12.6441ZM35.7708 13.0176C37.3828 13.0458 38.9948 13.0106 40.6068 13.0317C40.6068 19.4811 40.5999 25.9233 40.6068 32.3656C40.6068 32.4291 40.6068 32.556 40.5111 32.5348H35.7845C35.7435 31.4705 35.7776 30.3991 35.764 29.3348C35.7708 23.9004 35.764 18.459 35.7708 13.0176ZM86.3504 26.0996C86.7602 25.9375 87.1564 25.726 87.573 25.5781C88.174 25.3384 88.7615 25.0494 89.3625 24.8098C90.6057 24.2178 91.8898 23.7244 93.1466 23.1675C93.4471 22.9983 93.7886 22.9208 94.0823 22.7375C94.417 22.6036 94.7518 22.4837 95.0797 22.3286C95.3665 22.1524 95.6944 22.0819 95.9881 21.9269C96.3774 21.7648 96.7531 21.5816 97.1493 21.4336C97.5523 21.2009 98.0031 21.0882 98.4061 20.8626C98.5154 20.785 98.6929 20.8062 98.7612 20.6723C98.6451 20.5032 98.7066 20.2917 98.6451 20.1084C98.5563 19.7772 98.4675 19.4529 98.3924 19.1287C98.0851 18.149 97.6411 17.2115 97.04 16.3939C96.3091 15.3014 95.3051 14.4203 94.1917 13.7719C93.4608 13.3137 92.6412 13.0529 91.8215 12.8274C91.3161 12.764 90.8311 12.5807 90.3188 12.5877C89.8543 12.5243 89.3762 12.4961 88.9186 12.5807C88.1057 12.5948 87.3271 12.7992 86.5552 13.0318C85.2096 13.5181 83.9323 14.2582 82.9009 15.2803C82.5936 15.5763 82.3408 15.9217 82.0471 16.2247C81.5895 16.8309 81.1727 17.4723 80.8586 18.1631C80.4146 19.1992 79.9911 20.2847 79.9433 21.4336C79.7931 21.9833 79.8409 22.5613 79.834 23.1252C79.8204 23.4847 79.875 23.8371 79.9433 24.1825C79.9228 24.5489 80.0594 24.8873 80.1073 25.2397C80.2234 25.9869 80.5444 26.6775 80.8381 27.3683C81.6441 29.074 82.9145 30.5542 84.5061 31.5198C85.5511 32.1824 86.7123 32.6546 87.9281 32.8308C88.9186 32.993 89.9363 33.0212 90.9335 32.8873C91.2751 32.9154 91.6029 32.7604 91.9445 32.7392C93.3994 32.3868 94.8269 31.7524 95.9266 30.6881C96.2546 30.4203 96.5619 30.1031 96.8215 29.7647C97.2586 29.3065 97.5728 28.7498 97.887 28.2C98.1876 27.6149 98.4335 26.9946 98.6111 26.3533C98.5155 26.3109 98.4062 26.3251 98.3106 26.3251C96.7123 26.3322 95.1208 26.3181 93.5224 26.3251C93.3722 26.3251 93.3722 26.5366 93.2765 26.6212C93.0033 27.03 92.6549 27.3753 92.2861 27.6996C91.7533 28.0944 91.1249 28.3058 90.5033 28.496C90.3394 28.5173 90.1823 28.5101 90.032 28.5736C89.6495 28.6018 89.2602 28.5877 88.8708 28.5807C88.4405 28.4961 88.0102 28.3974 87.5935 28.2565C86.9515 27.9181 86.3231 27.5305 85.8382 26.9806C85.7151 26.8256 85.5171 26.7058 85.4761 26.5013C85.5854 26.452 85.6879 26.3745 85.8108 26.3533C86.0089 26.3181 86.1591 26.156 86.3504 26.0996ZM84.3831 22.533C84.2876 22.2863 84.3763 21.9974 84.3626 21.7366C84.472 21.377 84.5061 20.9965 84.6359 20.6369C84.9637 19.8405 85.3667 19.0582 85.9541 18.4308C86.2274 18.1982 86.4596 17.9162 86.7738 17.74C87.006 17.6131 87.2314 17.4722 87.4705 17.3594C87.9145 17.2256 88.3448 17.0141 88.8093 17.0141C89.2328 16.9084 89.67 16.9648 90.1002 16.9717C91.2273 17.1339 92.3612 17.6343 93.092 18.5576C93.1672 18.741 92.9144 18.7551 92.8119 18.8256C92.368 19.0793 91.8693 19.2061 91.4253 19.467C91.2273 19.5022 91.0565 19.6291 90.8652 19.6925C89.4513 20.3269 88.0101 20.8836 86.6099 21.5463C85.8586 21.8493 85.1141 22.1736 84.3831 22.533ZM79.2944 4.40441C77.7986 4.39031 76.3027 4.40441 74.8069 4.39736C74.6975 4.41146 74.5678 4.36212 74.479 4.4467C74.4926 7.75948 74.479 11.0793 74.4859 14.3921C74.479 14.5119 74.5063 14.6317 74.4585 14.7445C74.3219 14.7234 74.2536 14.5894 74.1512 14.5119C73.4613 13.8987 72.6895 13.3771 71.8288 13.074C71.2482 12.8414 70.6404 12.7216 70.0256 12.6088C69.3289 12.5947 68.6254 12.5736 67.9218 12.6159C67.8466 12.637 67.7783 12.6582 67.7033 12.6652C66.1391 12.8908 64.6773 13.6449 63.4752 14.6811C62.8058 15.3295 62.1364 16.0062 61.6651 16.8238C61.1119 17.6344 60.7567 18.5648 60.4152 19.4811C60.2581 20.059 60.1009 20.63 60.0326 21.222C59.9028 22.1313 59.9575 23.0617 59.9711 23.978C60.0053 24.2176 60.0804 24.4432 60.0872 24.6828C60.2102 25.4582 60.4288 26.2194 60.7292 26.9454C60.982 27.6432 61.3918 28.2775 61.7675 28.9119C62.0339 29.2643 62.2934 29.6308 62.6144 29.941C63.0926 30.4273 63.5638 30.956 64.1649 31.2943C64.8753 31.8511 65.7154 32.1825 66.5351 32.5066C66.8356 32.563 67.1157 32.7392 67.423 32.7463C67.6826 32.7674 67.9216 32.8943 68.1813 32.8801C68.3179 32.866 68.4408 32.9647 68.5842 32.9506C69.2468 32.9717 69.9161 32.9717 70.5787 32.9506C70.688 32.9506 70.7973 32.9013 70.9134 32.8942C71.371 32.9013 71.7944 32.718 72.2384 32.6546C72.819 32.4361 73.4407 32.2951 73.9802 31.9709C74.7794 31.5903 75.5034 31.0546 76.1523 30.4484C76.9719 29.7154 77.6345 28.7991 78.1263 27.7982C78.338 27.3541 78.5771 26.9242 78.7137 26.4449C78.9733 25.7823 79.0894 25.0775 79.1783 24.3797C79.3285 23.7665 79.2807 23.125 79.2944 22.4907C79.2944 16.4643 79.2944 10.4379 79.2944 4.40441ZM74.438 23.4916C74.3971 24.2388 74.1238 24.9507 73.8028 25.6203C73.2632 26.6705 72.3548 27.474 71.3234 27.9815C71.1662 28.0661 70.9613 28.0591 70.8521 28.2141C70.6608 28.2141 70.4695 28.2212 70.2851 28.2917C69.6976 28.3058 69.0898 28.3622 68.516 28.193C68.2701 28.0732 67.9969 28.0239 67.751 27.8899C67.4436 27.7137 67.0953 27.5939 66.8426 27.3261C66.3644 26.9807 65.9957 26.5084 65.6609 26.0221C65.3945 25.5499 65.1281 25.0635 65.0052 24.5278C64.8686 24.2459 64.8822 23.9287 64.8071 23.6327C64.7866 22.8786 64.7456 22.1032 64.9164 21.3701C64.9916 21.1375 65.0394 20.8908 65.1213 20.6582C65.3194 20.2846 65.4423 19.8688 65.7019 19.5305C65.8385 19.2344 66.0776 19.0159 66.2689 18.7622C66.7812 18.156 67.4847 17.7684 68.195 17.4653C68.4614 17.4019 68.7209 17.2609 69.0011 17.2609C69.568 17.1129 70.1553 17.2327 70.7155 17.3385C71.4532 17.6134 72.1841 17.994 72.7578 18.5579C72.9696 18.7623 73.1266 19.016 73.3384 19.2204C74.2126 20.4326 74.6156 21.9903 74.438 23.4916ZM97.7135 13.8506H103.766L108.147 26.3521L112.644 13.8506H118.481L111.012 32H105.034L97.7135 13.8506Z" fill="#37B7B7" fill-opacity="0.9" stroke="#A8A4D0" stroke-opacity="0.31" stroke-width="0.5"/>
<path d="M121.161 12.8307C121.049 12.8307 120.944 12.801 120.846 12.749L119.849 12.1617C119.699 12.0799 119.774 12.0502 119.819 12.0353C120.022 11.9684 120.059 11.9535 120.269 11.8346C120.291 11.8197 120.322 11.8272 120.344 11.842L121.109 12.2955C121.139 12.3103 121.176 12.3103 121.199 12.2955L124.19 10.5782C124.22 10.5633 124.235 10.5335 124.235 10.4964V7.06929C124.235 7.03205 124.22 7.00239 124.19 6.98747L121.199 5.27763C121.169 5.26271 121.131 5.26271 121.109 5.27763L118.117 6.98747C118.087 7.00233 118.072 7.03951 118.072 7.06922V10.4964C118.072 10.5262 118.087 10.5633 118.117 10.5782L118.934 11.0465C119.377 11.2695 119.654 11.0093 119.654 10.7492V7.36659C119.654 7.32202 119.692 7.27738 119.744 7.27738H120.127C120.172 7.27738 120.216 7.31455 120.216 7.36659V10.7492C120.216 11.3364 119.894 11.6784 119.332 11.6784C119.159 11.6784 119.024 11.6784 118.642 11.4925L117.855 11.0465C117.66 10.9351 117.54 10.7268 117.54 10.5038V7.07669C117.54 6.85368 117.66 6.64546 117.855 6.53399L120.846 4.81669C121.034 4.71261 121.289 4.71261 121.476 4.81669L124.468 6.53399C124.663 6.64546 124.783 6.85368 124.783 7.07669V10.5038C124.783 10.7268 124.663 10.9351 124.468 11.0465L121.476 12.7638C121.379 12.8085 121.266 12.8307 121.161 12.8307H121.161ZM122.083 10.4741C120.771 10.4741 120.501 9.87938 120.501 9.37386C120.501 9.32922 120.539 9.28465 120.591 9.28465H120.981C121.026 9.28465 121.064 9.31436 121.064 9.359C121.124 9.75298 121.296 9.94628 122.091 9.94628C122.721 9.94628 122.991 9.80502 122.991 9.47048C122.991 9.27719 122.916 9.136 121.934 9.03932C121.116 8.9575 120.606 8.77913 120.606 8.13236C120.606 7.53017 121.116 7.1733 121.971 7.1733C122.931 7.1733 123.403 7.50045 123.463 8.21405C123.463 8.23643 123.456 8.25869 123.441 8.28101C123.426 8.29587 123.403 8.31073 123.381 8.31073H122.991C122.953 8.31073 122.916 8.28101 122.908 8.24383C122.818 7.83499 122.586 7.70114 121.971 7.70114C121.281 7.70114 121.199 7.93907 121.199 8.11744C121.199 8.33305 121.296 8.39994 122.226 8.51888C123.148 8.63788 123.583 8.80885 123.583 9.44816C123.576 10.1024 123.036 10.4741 122.083 10.4741Z" fill="#539E43"/>
<path d="M89.1229 6.73542C89.1229 6.60162 89.048 6.47516 88.928 6.40827L85.7489 4.59435C85.6964 4.56457 85.6364 4.54971 85.5765 4.54225H85.5465C85.4865 4.54225 85.4265 4.56457 85.374 4.59435L82.1949 6.40827C82.0749 6.47516 82 6.60156 82 6.73542L82.0075 11.6122C82.0075 11.6791 82.045 11.746 82.105 11.7758C82.165 11.813 82.2399 11.813 82.2925 11.7758L84.1819 10.7053C84.3019 10.6384 84.3768 10.512 84.3768 10.3782V8.09585C84.3768 7.96206 84.4518 7.83567 84.5718 7.76877L85.374 7.30783C85.434 7.27065 85.5015 7.25573 85.569 7.25573C85.6364 7.25573 85.7039 7.27065 85.7565 7.30783L86.5587 7.76877C86.6787 7.83567 86.7536 7.962 86.7536 8.09585V10.3782C86.7536 10.512 86.8286 10.6384 86.9486 10.7053L88.838 11.7758C88.898 11.813 88.973 11.813 89.033 11.7758C89.093 11.746 89.1305 11.6791 89.1305 11.6122L89.1229 6.73542Z" fill="#333333"/>
<path d="M104.404 0.0223362C104.344 -0.00744541 104.269 -0.00744541 104.216 0.0223362C104.156 0.0595151 104.119 0.11895 104.119 0.185846V5.01813C104.119 5.0627 104.096 5.10728 104.051 5.13706C104.006 5.15932 103.961 5.15932 103.916 5.13706L103.121 4.68358C103.063 4.65069 102.997 4.63339 102.93 4.63339C102.863 4.63339 102.797 4.65069 102.739 4.68358L99.5599 6.50496C99.44 6.57185 99.365 6.69825 99.365 6.83204V10.4673C99.365 10.6011 99.44 10.7276 99.5599 10.7945L102.739 12.6159C102.797 12.6488 102.863 12.666 102.93 12.666C102.997 12.666 103.063 12.6488 103.121 12.6159L106.301 10.7945C106.42 10.7276 106.495 10.6012 106.495 10.4673V1.40509C106.495 1.26384 106.42 1.13751 106.301 1.07055L104.404 0.0223362H104.404ZM104.111 9.27047C104.111 9.30765 104.096 9.33737 104.066 9.35223L102.979 9.97668C102.964 9.98402 102.947 9.98784 102.93 9.98784C102.913 9.98784 102.897 9.98402 102.881 9.97668L101.794 9.35223C101.764 9.33737 101.749 9.30019 101.749 9.27047V8.02151C101.749 7.98433 101.764 7.95461 101.794 7.93975L102.881 7.31524C102.897 7.30789 102.913 7.30408 102.93 7.30408C102.947 7.30408 102.964 7.30789 102.979 7.31524L104.066 7.93975C104.096 7.95455 104.111 7.99179 104.111 8.02151V9.27047Z" fill="#333333"/>
<path d="M114.983 7.99181C115.103 7.92491 115.17 7.79852 115.17 7.66466V6.78002C115.17 6.64623 115.095 6.51984 114.983 6.45294L111.826 4.63903C111.768 4.60614 111.702 4.58885 111.635 4.58885C111.568 4.58885 111.502 4.60614 111.444 4.63903L108.265 6.46034C108.145 6.52723 108.07 6.65363 108.07 6.78749V10.4228C108.07 10.5566 108.145 10.683 108.265 10.7499L111.422 12.5341C111.542 12.601 111.684 12.601 111.796 12.5341L113.708 11.4785C113.768 11.4487 113.806 11.3818 113.806 11.3149C113.806 11.248 113.768 11.1811 113.708 11.1514L110.514 9.32999C110.454 9.29288 110.417 9.23338 110.417 9.16648V8.02905C110.417 7.96216 110.454 7.89526 110.514 7.86548L111.512 7.30046C111.541 7.28225 111.575 7.27258 111.609 7.27258C111.643 7.27258 111.677 7.28225 111.706 7.30046L112.704 7.86548C112.764 7.90266 112.801 7.96209 112.801 8.02905V8.92115C112.801 8.98805 112.839 9.05494 112.899 9.08466C112.959 9.12184 113.034 9.12184 113.094 9.08466L114.983 7.99181V7.99181Z" fill="#333333"/>
<path d="M111.586 7.82084C111.598 7.81358 111.611 7.80971 111.624 7.80971C111.637 7.80971 111.65 7.81358 111.661 7.82084L112.269 8.17024C112.291 8.18504 112.306 8.20736 112.306 8.23714V8.93595C112.306 8.96566 112.291 8.98798 112.269 9.00284L111.661 9.35225C111.65 9.35951 111.637 9.36338 111.624 9.36338C111.611 9.36338 111.598 9.35951 111.586 9.35225L110.979 9.00284C110.957 8.98798 110.942 8.96566 110.942 8.93595V8.23714C110.942 8.20736 110.957 8.18504 110.979 8.17024L111.586 7.82084V7.82084Z" fill="#539E43"/>
<mask id="mask0" mask-type="alpha" maskUnits="userSpaceOnUse" x="90" y="4" width="8" height="9">
<path d="M94.439 4.65386C94.3807 4.62097 94.3148 4.60368 94.2478 4.60368C94.1807 4.60368 94.1149 4.62097 94.0566 4.65386L90.9 6.46025C90.78 6.52714 90.7125 6.65354 90.7125 6.78733V10.4078C90.7125 10.5416 90.7875 10.668 90.9 10.7349L94.0566 12.5414C94.1149 12.5743 94.1807 12.5916 94.2478 12.5916C94.3148 12.5916 94.3807 12.5743 94.439 12.5414L97.5956 10.7349C97.7155 10.668 97.7831 10.5416 97.7831 10.4078V6.78739C97.7831 6.6536 97.708 6.52721 97.5956 6.46031L94.439 4.65386Z" fill="white"/>
</mask>
<g mask="url(#mask0)">
<path d="M94.439 4.65386C94.3807 4.62097 94.3148 4.60368 94.2478 4.60368C94.1807 4.60368 94.1149 4.62097 94.0566 4.65386L90.9 6.46025C90.78 6.52714 90.7125 6.65354 90.7125 6.78733V10.4078C90.7125 10.5416 90.7875 10.668 90.9 10.7349L94.0566 12.5414C94.1149 12.5743 94.1807 12.5916 94.2478 12.5916C94.3148 12.5916 94.3807 12.5743 94.439 12.5414L97.5956 10.7349C97.7155 10.668 97.7831 10.5416 97.7831 10.4078V6.78739C97.7831 6.6536 97.708 6.52721 97.5956 6.46031L94.439 4.65386Z" fill="url(#paint0_linear)"/>
<path d="M97.6031 6.46033L94.4315 4.65388C94.4003 4.63828 94.3677 4.62582 94.334 4.6167L90.78 10.6533C90.8094 10.6889 90.845 10.7191 90.885 10.7425L94.0566 12.549C94.1466 12.6011 94.2515 12.6159 94.349 12.5862L97.6856 6.53475C97.6631 6.50504 97.633 6.48265 97.6031 6.4604V6.46033Z" fill="url(#paint1_linear)"/>
<path fill-rule="evenodd" clip-rule="evenodd" d="M97.6106 10.735C97.7005 10.6829 97.768 10.5937 97.798 10.4971L94.3189 4.60921C94.2289 4.59435 94.1314 4.60175 94.0491 4.65379L90.8999 6.45291L94.2964 12.5935C94.3458 12.5855 94.3938 12.5705 94.4389 12.549L97.6105 10.735L97.6106 10.735Z" fill="url(#paint2_linear)"/>
<path fill-rule="evenodd" clip-rule="evenodd" d="M97.6106 10.735L94.4465 12.5415C94.4018 12.5641 94.3537 12.5792 94.304 12.5861L94.364 12.6976L97.873 10.683V10.6384L97.783 10.4897C97.768 10.5937 97.7005 10.683 97.6106 10.735V10.735Z" fill="url(#paint3_linear)"/>
<path fill-rule="evenodd" clip-rule="evenodd" d="M97.6106 10.735L94.4465 12.5415C94.4018 12.5641 94.3537 12.5792 94.304 12.5861L94.364 12.6976L97.873 10.683V10.6384L97.783 10.4897C97.768 10.5937 97.7005 10.683 97.6106 10.735V10.735Z" fill="url(#paint4_linear)"/>
</g>
<path d="M20.7581 16.6726C20.4894 16.5856 20.2184 16.505 19.9455 16.4309C19.9913 16.2541 20.0335 16.0794 20.071 15.9078C20.6862 13.0895 20.284 10.8191 18.9103 10.0716C17.5932 9.35493 15.4393 10.1022 13.2639 11.8888C13.0495 12.0652 12.8398 12.2467 12.6352 12.4331C12.4981 12.3092 12.3587 12.1876 12.2169 12.0686C9.93698 10.1582 7.65173 9.35307 6.27951 10.1027C4.96361 10.8216 4.57396 12.956 5.12781 15.6269C5.18292 15.8914 5.24513 16.1546 5.3144 16.4161C4.99093 16.5028 4.67879 16.5952 4.38007 16.6935C1.70704 17.573 0 18.9512 0 20.3809C0 21.8574 1.83258 23.3384 4.61666 24.2365C4.84237 24.309 5.06996 24.3761 5.29922 24.438C5.22476 24.7196 5.15866 25.0032 5.10099 25.2884C4.57297 27.913 4.9853 29.9969 6.29766 30.7112C7.65311 31.4489 9.9281 30.6907 12.1432 28.8633C12.3229 28.7147 12.4985 28.562 12.6701 28.4051C12.8917 28.607 13.1193 28.8029 13.3525 28.9928C15.4983 30.7352 17.6175 31.4388 18.9286 30.7226C20.2827 29.9828 20.7229 27.7441 20.1515 25.0204C20.1065 24.807 20.056 24.5947 20.0001 24.3836C20.1599 24.3389 20.3167 24.2929 20.4695 24.2451C23.3639 23.3402 25.247 21.8771 25.247 20.3809C25.247 18.946 23.4849 17.5584 20.7581 16.6726V16.6726ZM20.1304 23.2791C19.9923 23.3221 19.8507 23.3637 19.7063 23.4042C19.3868 22.4496 18.9556 21.4346 18.4279 20.3858C18.9314 19.362 19.346 18.36 19.6566 17.4116C19.9149 17.4821 20.1655 17.5565 20.4071 17.6349C22.7434 18.394 24.1685 19.5162 24.1685 20.3809C24.1685 21.3019 22.6294 22.4975 20.1304 23.2791V23.2791ZM19.0935 25.2181C19.3461 26.4224 19.3821 27.5113 19.2148 28.3626C19.0645 29.1275 18.7621 29.6375 18.3881 29.8418C17.5926 30.2764 15.891 29.7115 14.056 28.2212C13.8391 28.0447 13.6274 27.8625 13.4212 27.6749C14.1326 26.9407 14.8436 26.0871 15.5375 25.1391C16.758 25.0369 17.9111 24.8698 18.9568 24.6417C19.0083 24.8378 19.054 25.0301 19.0935 25.2181V25.2181ZM8.60727 29.7666C7.82994 30.0257 7.21079 30.0331 6.83652 29.8295C6.04016 29.396 5.70909 27.7227 6.16067 25.4783C6.21435 25.2131 6.27582 24.9493 6.345 24.6873C7.37914 24.9032 8.52384 25.0584 9.74723 25.1521C10.4459 26.0797 11.1773 26.9323 11.9145 27.6789C11.7579 27.822 11.5975 27.9614 11.4336 28.097C10.454 28.905 9.47238 29.4783 8.60727 29.7666V29.7666ZM4.96558 23.2734C3.73449 22.8762 2.7178 22.3602 2.02095 21.797C1.3947 21.291 1.07862 20.7885 1.07862 20.3809C1.07862 19.5133 2.44916 18.4067 4.7351 17.6546C5.01252 17.5634 5.30287 17.4773 5.60415 17.3965C5.92014 18.3663 6.33454 19.3803 6.83465 20.4056C6.32803 21.4461 5.90771 22.4763 5.58867 23.4576C5.37941 23.401 5.17165 23.3396 4.96558 23.2734V23.2734ZM6.18631 15.4313C5.71185 13.143 6.02694 11.4169 6.81996 10.9836C7.66455 10.5222 9.53224 11.1801 11.5008 12.8297C11.6292 12.9375 11.7555 13.0475 11.8796 13.1596C11.1461 13.903 10.4213 14.7492 9.72889 15.6714C8.54149 15.7752 7.40488 15.942 6.35989 16.1655C6.2955 15.9222 6.23763 15.6775 6.18631 15.4314V15.4313ZM17.0768 17.9692C16.8299 17.5668 16.574 17.1695 16.309 16.7776C17.1145 16.8737 17.8863 17.0013 18.6111 17.1573C18.3936 17.8155 18.1223 18.5036 17.8031 19.209C17.5698 18.7912 17.3276 18.3778 17.0768 17.9692V17.9692ZM12.6357 13.887C13.1331 14.3957 13.6313 14.9635 14.1214 15.5796C13.1273 15.5353 12.1315 15.5351 11.1374 15.579C11.6279 14.9686 12.1304 14.4015 12.6357 13.887ZM8.16604 17.9761C7.91834 18.3815 7.68069 18.7923 7.4533 19.2082C7.13929 18.5052 6.87055 17.814 6.65112 17.1465C7.37145 16.9944 8.13961 16.8701 8.94002 16.7757C8.6721 17.1701 8.41404 17.5703 8.16604 17.976V17.9761ZM8.963 24.0584C8.13606 23.9713 7.35636 23.8534 6.63622 23.7054C6.85911 23.026 7.13377 22.3201 7.45458 21.602C7.68288 22.0182 7.92151 22.4292 8.17028 22.8348C8.4261 23.2518 8.691 23.6602 8.963 24.0584ZM12.6654 26.9464C12.1542 26.4259 11.6443 25.8501 11.1464 25.2308C11.6298 25.2487 12.1226 25.2578 12.6235 25.2578C13.1381 25.2578 13.6468 25.2469 14.1475 25.2259C13.6559 25.8563 13.1595 26.433 12.6654 26.9464ZM17.8133 21.5654C18.1508 22.2913 18.4352 22.9935 18.661 23.6613C17.929 23.8189 17.1387 23.9459 16.3059 24.0402C16.5728 23.641 16.8312 23.2368 17.081 22.8279C17.335 22.4122 17.5791 21.9913 17.8133 21.5654V21.5654ZM16.1468 22.3193C15.7643 22.9463 15.3604 23.5613 14.9356 24.1635C14.1661 24.2149 13.3949 24.2405 12.6235 24.2401C11.8378 24.2401 11.0736 24.217 10.3377 24.172C9.9018 23.5712 9.49015 22.9551 9.10363 22.3249H9.10373C8.71903 21.6981 8.35969 21.0577 8.02649 20.4052C8.35884 19.7525 8.71709 19.1118 9.10047 18.4845L9.10038 18.4846C9.48362 17.8571 9.89197 17.2436 10.3246 16.6454C11.0754 16.5918 11.8453 16.5639 12.6234 16.5639H12.6235C13.4052 16.5639 14.1761 16.5921 14.9267 16.6461C15.3549 17.2434 15.7607 17.8548 16.1432 18.4791C16.5279 19.105 16.8909 19.7425 17.2316 20.3907C16.8944 21.0455 16.5325 21.6888 16.1468 22.3193V22.3193ZM18.3717 10.9533C19.217 11.4134 19.5458 13.269 19.0147 15.7023C18.9807 15.8575 18.9427 16.0156 18.9013 16.176C17.8537 15.9478 16.7163 15.7781 15.5255 15.6727C14.8318 14.7404 14.1129 13.8928 13.3913 13.159C13.5804 12.987 13.774 12.8194 13.972 12.6565C15.8359 11.1258 17.578 10.5214 18.3717 10.9533V10.9533ZM12.6235 18.2533C13.8686 18.2533 14.878 19.2059 14.878 20.3809C14.878 21.5559 13.8686 22.5084 12.6235 22.5084C11.3784 22.5084 10.369 21.5559 10.369 20.3809C10.369 19.2059 11.3784 18.2533 12.6235 18.2533V18.2533Z" fill="#00D8FF"/>
<defs>
<linearGradient id="paint0_linear" x1="95.5338" y1="6.00053" x2="92.1157" y2="11.4173" gradientUnits="userSpaceOnUse">
<stop stop-color="#41873F"/>
<stop offset="0.3288" stop-color="#418B3D"/>
<stop offset="0.6352" stop-color="#419637"/>
<stop offset="0.9319" stop-color="#3FA92D"/>
<stop offset="1" stop-color="#3FAE2A"/>
</linearGradient>
<linearGradient id="paint1_linear" x1="93.7685" y1="9.02175" x2="102.4" y2="4.29215" gradientUnits="userSpaceOnUse">
<stop offset="0.1376" stop-color="#41873F"/>
<stop offset="0.4032" stop-color="#54A044"/>
<stop offset="0.7136" stop-color="#66B848"/>
<stop offset="0.9081" stop-color="#6CC04A"/>
</linearGradient>
<linearGradient id="paint2_linear" x1="90.5972" y1="8.59775" x2="97.9014" y2="8.59775" gradientUnits="userSpaceOnUse">
<stop offset="0.09192" stop-color="#6CC04A"/>
<stop offset="0.2864" stop-color="#66B848"/>
<stop offset="0.5968" stop-color="#54A044"/>
<stop offset="0.8624" stop-color="#41873F"/>
</linearGradient>
<linearGradient id="paint3_linear" x1="90.5972" y1="11.5997" x2="97.9014" y2="11.5997" gradientUnits="userSpaceOnUse">
<stop offset="0.09192" stop-color="#6CC04A"/>
<stop offset="0.2864" stop-color="#66B848"/>
<stop offset="0.5968" stop-color="#54A044"/>
<stop offset="0.8624" stop-color="#41873F"/>
</linearGradient>
<linearGradient id="paint4_linear" x1="98.9655" y1="5.82936" x2="97.1453" y2="15.449" gradientUnits="userSpaceOnUse">
<stop stop-color="#41873F"/>
<stop offset="0.3288" stop-color="#418B3D"/>
<stop offset="0.6352" stop-color="#419637"/>
<stop offset="0.9319" stop-color="#3FA92D"/>
<stop offset="1" stop-color="#3FAE2A"/>
</linearGradient>
</defs>
</svg>
